<svg version="1.1" id="Layer_1" xmlns="http://www.w3.org/2000/svg" xmlns:xlink="http://www.w3.org/1999/xlink" x="0px" y="0px"
	 width="100%" viewBox="0 0 778 240" enable-background="new 0 0 778 240" xml:space="preserve">

<path fill="#5A71F7" opacity="1.000000" stroke="none" 
	d="
M449.187592,154.811798 
	C445.056946,150.973648 441.198151,147.366196 437.295898,143.806412 
	C433.705139,140.530762 430.569336,136.559433 430.442627,131.811554 
	C430.144562,120.643242 427.658875,109.162453 434.600830,98.719612 
	C438.813904,92.381783 444.256317,88.515060 451.762573,88.078842 
	C457.339172,87.754776 462.962189,87.731041 468.511749,88.988510 
	C473.490082,90.116539 480.984283,98.943092 480.994446,104.035690 
	C481.011780,112.700851 480.591400,121.391518 481.130341,130.023056 
	C481.548706,136.723557 477.295013,140.525528 473.569397,144.655792 
	C471.321472,147.147873 468.266907,148.961746 465.420624,150.847748 
	C463.433411,152.164505 463.471893,152.800079 465.425629,154.200806 
	C467.576111,155.742630 469.852844,156.946426 472.221130,158.023727 
	C475.258698,159.405487 478.369049,161.315155 476.782562,164.960510 
	C475.172241,168.660599 471.610931,166.993225 468.625458,166.242493 
	C461.139801,164.360123 454.707855,160.725037 449.187592,154.811798 
z"/>
<path fill="#5C72F7" opacity="1.000000" stroke="none" 
	d="
M105.772766,155.094681 
	C109.937103,147.733566 113.704231,140.592178 117.101639,133.219803 
	C118.985634,129.131561 118.633575,125.868912 116.686821,122.353043 
	C114.016159,117.529793 111.218765,112.776871 108.507378,107.975914 
	C107.629028,106.420639 106.846809,104.810913 106.026901,103.222847 
	C104.851349,100.945923 103.853981,97.494530 105.673317,96.429558 
	C108.497139,94.776596 109.487473,98.475563 110.828835,100.353271 
	C115.837700,107.364967 120.042206,114.861320 124.112045,122.446297 
	C125.748917,125.496948 126.221375,128.402771 124.735741,131.621323 
	C118.252632,145.666641 111.576454,159.615219 103.977417,173.099213 
	C101.946030,176.703796 100.015381,176.761536 98.064644,173.134689 
	C90.312294,158.721375 82.251488,144.468781 75.654961,129.449509 
	C74.695503,127.264984 75.396805,125.856346 76.234322,124.481964 
	C86.725739,107.265175 96.326309,89.506180 108.740692,73.476952 
	C118.917908,60.336304 131.621689,51.930042 148.064438,48.935829 
	C158.151566,47.098969 168.234940,45.307999 178.408356,44.053734 
	C180.152023,43.838753 181.944931,44.023327 184.496689,44.023327 
	C180.328964,49.653122 174.787628,51.030079 169.358505,51.851784 
	C160.184250,53.240322 151.053955,54.838474 142.072723,57.079041 
	C130.554947,59.952400 121.045845,66.505745 114.153824,75.957321 
	C103.168655,91.022141 93.928001,107.237587 84.819511,123.508881 
	C83.227776,126.352348 82.626274,128.798187 84.008934,131.752426 
	C87.901108,140.068558 92.360657,148.074783 97.744507,155.876022 
	C98.446152,155.571686 98.470833,155.340607 98.497665,154.750580 
	C98.015999,147.212189 99.560387,139.940445 97.348846,132.481247 
	C97.120209,130.649689 97.053787,129.169052 97.004013,127.687866 
	C96.923492,125.291756 96.765503,122.928650 100.319595,122.979492 
	C103.668137,123.027397 105.065773,124.709053 104.999191,127.901245 
	C104.975113,129.056000 104.979538,130.211349 104.892319,131.808105 
	C102.212555,139.512177 103.924675,147.009109 103.659187,154.396591 
	C103.623566,155.387741 104.638992,155.567947 105.772766,155.094681 
z"/>
<path fill="#5A70F7" opacity="1.000000" stroke="none" 
	d="
M328.999298,111.241592 
	C330.010651,119.001663 330.029968,126.185959 328.227509,133.501175 
	C325.923370,142.852722 316.342957,149.399429 307.228912,149.902100 
	C297.939575,150.414398 288.603363,150.031143 279.297852,150.343155 
	C277.855286,150.391525 278.030731,149.808975 278.056061,149.218109 
	C278.132660,147.432510 277.479584,145.550507 278.614502,143.879486 
	C284.637543,135.011520 282.748657,124.942612 282.956696,115.196579 
	C283.024963,111.997574 282.979218,108.796265 283.002869,105.596130 
	C283.030609,101.839104 281.878754,98.480186 279.239014,95.818588 
	C277.240540,93.803535 277.744690,91.345497 278.200348,89.268646 
	C278.728851,86.859703 281.263458,88.067139 282.849457,88.063965 
	C291.878998,88.045898 300.903015,87.580078 309.843567,89.855293 
	C320.974121,92.687828 326.778748,100.008385 328.999298,111.241592 
z"/>
<path fill="#5A71F7" opacity="1.000000" stroke="none" 
	d="
M508.379944,98.355850 
	C504.209045,89.509949 504.505310,89.000961 513.423584,89.000992 
	C516.255127,89.000999 519.086731,88.996750 521.918274,89.002014 
	C527.699219,89.012764 528.504089,90.295265 526.077698,95.713287 
	C525.749695,96.445755 525.215332,97.085815 524.432556,97.915527 
	C522.726135,107.216293 523.813110,116.422043 523.548767,125.600273 
	C523.484070,127.843605 522.887451,130.212891 524.489624,132.668869 
	C525.254272,138.358200 527.799744,141.645676 531.758179,141.909164 
	C535.826538,142.179977 541.840393,138.278351 543.089844,134.232788 
	C543.896301,126.193314 543.339478,118.517326 543.355103,110.420639 
	C544.150269,104.479965 545.361328,99.006599 540.298950,94.501686 
	C538.872375,93.232193 538.332825,90.853775 539.168274,88.951111 
	C540.023376,87.003670 542.108643,88.107620 543.615540,88.051537 
	C547.609436,87.902916 551.612671,87.985062 555.612061,88.005196 
	C560.539734,88.030006 561.221558,89.192017 559.035278,93.880623 
	C558.486328,95.057831 557.801636,96.171722 557.010864,97.647751 
	C554.253784,100.597031 555.899536,103.860939 555.542603,106.811798 
	C555.328979,108.577232 555.456055,110.394424 555.697021,112.566299 
	C554.731934,114.744431 554.834045,116.776398 555.038696,118.706139 
	C555.656860,124.533546 554.266785,130.219772 553.863953,135.961823 
	C553.278870,144.302261 549.590637,147.968933 540.772217,150.046127 
	C533.829895,151.681412 526.911255,151.834061 520.092224,149.067413 
	C514.915955,146.967255 512.671021,142.898911 512.035522,137.760666 
	C510.985626,129.272141 509.786011,120.787636 509.929138,112.195076 
	C509.936401,111.760399 509.569946,111.319496 509.264465,110.484039 
	C509.690552,106.248245 509.935120,102.424301 508.379944,98.355850 
z"/>
<path fill="#5A71F7" opacity="1.000000" stroke="none" 
	d="
M252.645493,94.577278 
	C252.014389,96.473755 251.906906,98.061462 251.992996,99.690918 
	C252.080200,101.341614 252.172409,103.204918 250.324493,103.871933 
	C248.513306,104.525688 246.887589,103.799988 245.660721,102.191124 
	C244.980957,101.299683 244.065674,100.587822 243.127014,99.481506 
	C238.854416,95.921547 234.064590,98.100922 229.278442,97.826942 
	C228.959152,98.083099 228.961594,97.960526 229.022888,97.961105 
	C227.803543,102.656799 228.773376,107.433441 228.798050,112.523773 
	C233.948334,112.993347 238.847382,113.505112 243.591263,111.256462 
	C245.842484,110.189369 247.883224,110.783424 248.563171,113.930099 
	C249.351135,117.576714 248.996231,121.205513 248.896500,124.821159 
	C248.839600,126.883942 247.020370,127.676666 245.283783,126.604279 
	C240.487411,123.642418 235.234055,123.926353 229.519775,124.045486 
	C227.813217,129.403259 228.770569,134.802963 228.800293,140.527390 
	C231.861877,140.921173 234.709717,140.773911 237.519791,141.034271 
	C240.906494,141.348083 243.584503,140.568085 245.797867,137.785172 
	C247.797455,135.271072 250.362900,134.981018 253.022232,137.516907 
	C253.972992,141.586487 253.325912,145.310226 253.223114,149.420929 
	C244.857071,151.508835 236.742844,151.408386 228.500259,150.153397 
	C223.943024,149.459534 219.196350,150.017609 214.535141,149.996780 
	C209.168991,149.972794 208.750839,149.273911 211.281036,144.348251 
	C211.869995,143.201706 212.699417,142.178696 213.749634,140.924957 
	C215.008041,126.809883 214.315216,112.855186 214.195663,98.504875 
	C210.024658,96.232735 211.005722,92.656525 211.063309,89.476692 
	C211.102081,87.335495 212.931824,88.042282 214.078751,88.028564 
	C219.715637,87.961128 225.353836,88.013260 230.991470,87.996773 
	C235.406464,87.983849 239.848129,88.284286 244.598907,87.071609 
	C245.335754,87.282860 245.645950,87.434875 245.969025,87.453575 
	C252.462875,87.829422 252.463013,87.827103 252.645493,94.577278 
z"/>
<path fill="#5A70F7" opacity="1.000000" stroke="none" 
	d="
M600.839600,140.622269 
	C602.591003,140.968246 604.083130,140.855026 605.547607,141.007507 
	C610.905029,141.565338 615.761353,140.772629 619.827209,136.774628 
	C621.188049,135.436432 623.132690,134.717667 625.607422,135.093765 
	C627.126465,139.850174 626.363708,144.605087 626.434692,149.324417 
	C626.484680,152.648758 623.641052,151.085663 621.572754,151.685226 
	C617.475830,150.332031 613.637817,151.089249 609.880920,151.033691 
	C602.228821,150.920532 594.565857,150.788788 586.923218,151.080231 
	C582.468994,151.250076 582.243225,149.250153 583.513428,146.032837 
	C584.288391,144.070053 585.327576,142.211563 586.564819,140.135529 
	C588.245056,136.768661 587.420349,133.420059 587.450378,130.156876 
	C587.543823,120.010460 587.585510,109.861641 587.160706,99.332489 
	C586.886414,98.950775 586.998474,99.000519 586.973450,99.056473 
	C586.611572,98.608864 586.510803,98.018623 586.122986,97.252121 
	C584.609924,95.118988 581.749329,93.269608 583.264465,90.877869 
	C584.698303,88.614563 587.882568,88.114815 590.648499,88.030266 
	C597.511841,87.820496 604.415894,88.528458 611.647400,87.128830 
	C615.038147,87.814575 618.061890,87.686478 620.998535,87.418350 
	C624.930420,87.059341 626.111145,88.650879 625.264404,92.659576 
	C624.984131,95.535889 625.206848,98.057144 624.723389,100.434845 
	C623.836609,104.796875 621.947876,105.218140 618.615662,102.079155 
	C617.780029,101.291962 616.979675,100.467339 616.019714,99.339371 
	C615.520325,98.492805 614.907654,98.517471 614.152954,98.182175 
	C613.911316,98.036026 613.997681,97.998993 614.016235,98.042168 
	C610.116150,96.837891 606.098755,97.784180 601.773071,97.727417 
	C601.411499,97.905212 601.266418,98.100250 601.167969,98.029007 
	C599.818359,102.688232 600.766663,107.495651 600.826538,112.602112 
	C606.114563,112.724693 611.172607,113.781288 616.103210,111.212280 
	C618.142273,110.149834 621.355652,110.135979 621.369812,114.510056 
	C621.373962,115.791626 621.969360,117.335899 621.993835,118.805237 
	C622.119080,126.323380 620.321533,127.571022 613.301392,124.728287 
	C609.598816,123.228989 605.774536,124.400581 601.575012,124.020348 
	C599.734314,129.406082 600.812622,134.868103 600.839600,140.622269 
z"/>
<path fill="#5A70F7" opacity="1.000000" stroke="none" 
	d="
M402.262360,112.671967 
	C402.001617,120.167442 401.811859,127.239861 401.082153,134.325897 
	C400.085754,144.001724 397.375854,147.769684 387.490509,150.048187 
	C378.441620,152.133911 369.697937,152.135559 362.303589,144.936523 
	C359.151062,141.867218 358.852478,137.901474 358.190796,134.227295 
	C357.235474,128.922562 357.188263,123.431580 357.027039,118.011940 
	C356.788971,110.007713 357.025208,102.034988 353.309448,94.498726 
	C351.687042,91.208191 353.324738,88.514030 357.214691,88.050217 
	C361.832458,87.499634 366.492157,88.009720 370.915039,89.158012 
	C374.236572,90.020355 373.585449,93.101723 372.152466,95.194733 
	C369.604797,98.915901 368.852448,102.889946 368.967926,107.269653 
	C369.185455,115.518135 368.797363,123.759361 369.898682,132.009232 
	C370.719635,138.158783 374.126190,142.030685 380.796295,141.902756 
	C386.394562,141.795395 389.531250,137.574799 390.183289,132.113327 
	C391.132202,124.165596 390.797394,116.277435 390.973938,108.365425 
	C391.087189,103.290390 390.763489,98.329414 387.554138,93.917961 
	C386.019684,91.808731 388.807251,88.231842 392.084595,88.041756 
	C395.235626,87.858986 398.406433,87.954308 401.567017,88.011627 
	C407.081909,88.111649 408.601196,90.754646 405.942139,95.518867 
	C405.547821,96.225311 405.193848,96.954300 404.503143,97.845421 
	C402.128021,98.847466 402.525787,100.655693 402.504730,102.280014 
	C402.461517,105.610817 402.558411,108.942520 402.262360,112.671967 
z"/>
<path fill="#5A71F7" opacity="1.000000" stroke="none" 
	d="
M64.121246,176.994476 
	C76.912582,173.229187 88.368523,175.656158 98.774963,182.749847 
	C100.694511,184.058334 101.156395,183.777756 102.670143,182.867889 
	C107.503387,179.962814 112.304626,177.158646 118.010269,175.869186 
	C125.397247,174.199722 132.365097,175.803253 139.187012,177.745743 
	C151.074310,181.130630 162.688156,185.327942 172.308228,193.628510 
	C174.612793,195.617004 178.818497,195.308517 179.448303,199.639771 
	C170.846420,201.147736 162.324966,199.545029 153.962646,198.665939 
	C146.020355,197.830994 137.986099,196.454483 130.089340,196.274734 
	C117.498024,195.988144 104.910294,194.225449 92.344925,195.111832 
	C77.456451,196.162094 62.483273,195.767990 47.673340,198.761520 
	C40.347412,200.242325 32.592995,200.626602 24.968983,199.984131 
	C24.050718,199.906769 22.754032,200.494461 22.307570,199.371262 
	C21.734930,197.930634 23.180796,197.649185 24.061708,196.949066 
	C35.893524,187.545425 49.095970,180.897079 64.121246,176.994476 
z"/>
<path fill="#5A71F7" opacity="1.000000" stroke="none" 
	d="
M663.828735,150.005463 
	C661.134827,149.647964 658.923828,149.905914 656.587891,149.363861 
	C649.565552,147.734344 648.373474,144.380264 651.246216,136.649765 
	C652.896118,132.209991 659.124451,132.592499 662.271057,137.995148 
	C665.545898,143.618088 669.599854,142.299347 674.081116,141.041031 
	C679.070923,139.639893 678.753723,135.558960 679.084473,131.547028 
	C679.407898,127.623199 676.581299,127.749001 674.274902,126.996735 
	C671.040466,125.941765 667.846191,124.732719 664.561279,123.869080 
	C656.612732,121.779335 652.195740,116.303131 650.386047,108.717567 
	C648.318787,100.052223 656.185059,87.769951 665.675537,88.028000 
	C672.107788,88.202896 678.585571,87.255814 684.968628,88.962547 
	C688.263428,89.843521 690.104126,91.610023 690.004639,95.138397 
	C689.913391,98.374329 690.838318,102.457115 687.018494,103.763451 
	C683.811768,104.860092 680.122131,104.531502 678.516968,100.124588 
	C677.002930,95.967888 673.132385,96.718300 670.089539,97.207596 
	C667.657593,97.598648 665.134399,98.878975 664.968689,102.311539 
	C664.789673,106.022026 665.843628,108.592995 669.544312,110.041084 
	C674.220825,111.871010 678.740601,114.097084 683.366272,116.062103 
	C690.333618,119.021843 693.552124,123.734550 693.202881,131.778702 
	C692.829712,140.373123 689.711121,146.364197 681.554871,149.020889 
	C675.987854,150.834198 670.180176,152.198059 663.828735,150.005463 
z"/>
<path fill="#5A71F7" opacity="1.000000" stroke="none" 
	d="
M747.745361,140.349426 
	C750.832275,142.193008 750.699219,145.375168 751.850830,147.765121 
	C752.574402,149.266602 751.565002,150.885803 749.793152,150.913818 
	C744.357910,150.999802 738.864685,151.275757 733.497192,150.625961 
	C728.924622,150.072372 728.505920,145.450455 732.697388,140.977234 
	C734.060730,131.925232 733.292236,123.013130 733.473755,114.116737 
	C733.578186,108.995605 733.583984,103.868362 733.177002,98.352676 
	C732.920776,97.960602 733.035522,97.960892 733.036011,98.018250 
	C729.823425,97.215660 726.623169,96.959663 723.197510,98.560219 
	C720.544067,99.907585 717.958801,100.102028 714.954407,100.344658 
	C715.750732,96.347153 713.590271,92.070786 716.512390,88.000519 
	C723.836365,86.926765 730.772156,87.622765 737.687561,87.537155 
	C746.778931,87.424614 755.873901,87.421928 765.406738,87.778046 
	C767.829895,91.290497 766.234192,94.620544 765.535339,97.738327 
	C764.817139,100.942535 762.178467,100.542473 759.422302,99.041740 
	C758.562134,98.539894 757.959534,98.513245 757.148621,98.187393 
	C756.895569,98.037430 756.987549,97.984123 757.014282,98.030029 
	C754.274658,96.906372 751.393066,97.702461 748.260376,97.827911 
	C747.955444,98.076813 747.964111,97.956123 748.024536,97.959793 
	C746.848816,101.487816 747.575684,105.129814 747.544434,108.706978 
	C747.453491,119.111267 747.430298,129.517593 747.745361,140.349426 
z"/>
<path fill="#5C73F7" opacity="1.000000" stroke="none" 
	d="
M61.258926,57.673683 
	C49.700359,54.211895 38.018105,53.168831 26.717070,50.200802 
	C22.999357,49.224403 20.795965,47.194057 17.817547,44.284386 
	C24.929321,43.283871 31.084158,45.179047 37.185436,46.152317 
	C47.385239,47.779385 57.708031,49.088657 67.446190,52.972134 
	C78.515564,57.386482 87.485611,64.409683 94.507828,73.985741 
	C94.994591,74.649536 95.758476,75.336006 95.806343,76.051231 
	C95.925674,77.834091 98.559738,79.885513 95.966347,81.309250 
	C94.267181,82.242065 92.890495,80.313103 91.647232,79.124077 
	C84.662086,72.443680 78.473244,64.824539 69.341583,60.702873 
	C66.813835,59.561951 64.331551,58.416191 61.258926,57.673683 
z"/>
<path fill="#5C72F7" opacity="1.000000" stroke="none" 
	d="
M120.242004,86.294151 
	C118.538597,88.319084 117.159470,90.158852 115.600060,91.830437 
	C114.757828,92.733269 113.848801,94.580162 112.527657,93.705444 
	C111.546219,93.055649 110.782814,91.415939 110.991852,89.784813 
	C111.694313,84.303474 115.457176,80.779297 119.205727,77.420609 
	C132.241257,65.740814 148.177139,62.052235 165.085373,60.905243 
	C168.836441,60.650787 172.540604,59.656189 176.463531,60.157463 
	C176.069748,63.746010 172.975769,64.231293 170.529800,64.912048 
	C163.832901,66.775932 157.114075,68.978668 150.257324,69.758980 
	C137.943558,71.160316 128.539749,77.192619 120.242004,86.294151 
z"/>
<path fill="#5B72F7" opacity="1.000000" stroke="none" 
	d="
M71.554993,69.233459 
	C77.531334,72.932976 82.249275,77.516914 86.807205,82.292419 
	C87.833939,83.368164 88.896843,84.367958 89.378975,85.852226 
	C90.205238,88.395920 91.159569,91.756935 88.932808,93.072083 
	C86.983017,94.223640 85.295059,90.984383 84.062111,89.265732 
	C75.444473,77.253204 63.600124,70.959023 49.163643,68.983192 
	C42.229378,68.034149 35.402615,66.512985 28.885386,63.909885 
	C27.468918,63.344120 24.978708,62.904171 25.266947,61.094360 
	C25.620808,58.872501 28.089577,59.946262 29.473389,60.077229 
	C43.732868,61.426762 57.900356,63.297569 71.554993,69.233459 
z"/>
<path fill="#5C73F7" opacity="1.000000" stroke="none" 
	d="
M164.531525,79.770790 
	C156.368515,82.003380 148.405716,83.613167 140.805450,86.262848 
	C133.672668,88.749542 128.602539,94.282204 123.896873,100.114853 
	C122.718933,101.574905 121.945595,105.666344 118.500000,102.937035 
	C115.442162,100.514885 117.288139,97.977394 118.897781,95.638519 
	C126.984482,83.888237 139.001801,79.198151 152.411133,76.994835 
	C158.143448,76.052940 163.771088,73.962997 170.199493,75.478081 
	C168.784256,77.673241 166.657974,78.426384 164.531525,79.770790 
z"/>
<path fill="#5B72F7" opacity="1.000000" stroke="none" 
	d="
M55.234024,84.651398 
	C46.961056,82.689476 38.571106,82.097023 31.414150,74.887123 
	C41.929131,75.214996 50.707283,78.081001 59.710354,79.764648 
	C70.328308,81.750290 76.867012,88.564987 83.021027,96.418274 
	C84.129585,97.832924 84.144791,99.198837 83.914795,100.578735 
	C83.518394,102.956955 82.286873,103.808327 80.265366,101.783562 
	C78.030739,99.545357 75.647362,97.437096 73.579758,95.054443 
	C68.761612,89.502144 62.680477,86.317955 55.234024,84.651398 
z"/>



<path fill="#ffffff" opacity="1.000000" stroke="none" 
	d="
M469.869415,123.228821 
	C469.282715,124.375061 468.236023,124.618088 468.362000,125.898178 
	C469.144714,133.852585 465.614532,139.881073 459.654633,140.958328 
	C451.376709,142.454544 445.762543,139.296463 443.685547,131.080109 
	C441.636658,122.975090 441.429138,114.671669 443.917206,106.534019 
	C445.951141,99.881615 451.032166,95.724716 456.373444,96.101006 
	C461.690430,96.475594 468.498810,102.852463 468.871490,108.628853 
	C469.176971,113.364128 470.798309,118.003525 469.869415,123.228821 
z"/>
<path fill="#ffffff" opacity="1.000000" stroke="none" 
	d="
M317.994995,122.786407 
	C317.889740,124.865685 317.002502,126.253639 316.907593,127.975662 
	C316.470032,135.913483 310.928070,140.936462 302.923462,140.999985 
	C295.025604,141.062653 295.003876,141.062546 295.043396,133.327957 
	C295.088959,124.416946 293.294983,115.587814 293.961578,106.641045 
	C294.214142,103.251587 293.342316,98.870926 296.787994,97.404259 
	C300.518341,95.816422 305.129089,97.212502 308.466034,99.364723 
	C313.413788,102.555840 316.496948,107.542625 316.919525,113.619339 
	C317.124084,116.561028 318.694885,119.310379 317.994995,122.786407 
z"/>
<path fill="#ffffff" opacity="1.000000" stroke="none" 
	d="
M127.773819,190.994141 
	C122.029503,190.810822 116.716911,191.563477 111.507645,190.060257 
	C110.155914,189.670181 107.971848,190.546219 107.607368,188.815857 
	C107.251762,187.127655 109.194656,185.989975 110.549126,185.228790 
	C117.482941,181.332123 124.851265,178.654526 132.819611,181.116318 
	C143.011292,184.264984 153.117615,187.754562 162.448151,193.460587 
	C150.955521,193.642975 139.608917,192.220795 127.773819,190.994141 
z"/>
<path fill="#ffffff" opacity="1.000000" stroke="none" 
	d="
M49.922993,192.999786 
	C46.451057,193.202896 43.365326,192.281082 40.344341,193.667877 
	C44.342850,190.390884 48.908939,188.399796 53.629257,186.804031 
	C61.741802,184.061432 69.535721,180.313507 78.565155,180.864914 
	C84.128311,181.204636 88.442001,183.757858 92.855293,186.485199 
	C93.327133,186.776794 93.806259,187.552307 93.771187,188.068619 
	C93.690002,189.263641 92.520912,188.690689 91.850952,188.974426 
	C86.709480,191.151917 81.160011,190.060287 75.840210,190.717285 
	C67.418968,191.757263 58.858116,192.046783 49.922993,192.999786 
z"/>
</svg>